<svg width="770" height="839" viewBox="0 0 770 839" fill="none" xmlns="http://www.w3.org/2000/svg">
<g clip-path="url(#clip0_280_4810)">
<path d="M205.81 592.86C165.38 568.12 124.6 543.96 83.4697 520.41C98.0397 492.23 107.35 466.69 104.38 434.14C101.09 398 107.56 377.12 124.81 345.72C174.67 255.02 255.8 210.29 353.14 187.85C352.94 187.88 364.94 185.88 364.94 185.88" fill="white"/>
<path d="M372.99 160.38C378.92 119.54 383.45 77.14 390 36.67C437.5 67.68 489.81 122.6 526.15 166.35C538 180.62 549.6 202.37 561.98 215C569.11 222.28 591.26 233 601.08 239.88C639.04 266.45 663.58 292.91 689.44 330.83C679.47 347.92 669.69 365.11 660.1 382.42C653.55 393.98 640.5 415.76 636.59 427.85C637.83 431.99 641 433.36 645.08 435.55C646.05 436.07 647.02 436.58 647.99 437.08C661.95 412.23 697.61 346.85 697.66 346.72C702.94 332.87 700.17 298.17 634.88 244.97C626.06 237.77 616.83 231.1 607.22 225C599.75 220.31 578.35 208.15 573.46 202.53C558.49 185.41 546.66 165.48 531.69 147.47C497.5 106.33 458.99 68.99 416.83 36.07C409.98 30.71 395.96 16.83 386.8 18.6C382.41 19.45 379.74 22.52 377.65 26.23C369.61 40.55 360.93 131.14 358.73 152.82C349.38 144.99 340.99 136.17 331.81 128.16C317.08 115.32 249.13 58.11 230.74 59.07C228.24 59.2 225.74 60.09 224.03 61.98C222.09 64.14 221.3 67.02 221.11 69.84C220.31 81.49 222.75 94.12 224.12 105.74C228.25 140.67 235.55 175.75 238.11 210.76C223.06 220.41 208.14 229.87 193.99 240.95C150.42 275.07 102.77 332.04 90 386.75C83.04 416.54 94.02 453.94 81.87 485.75C74.12 506.04 66.87 514.51 54.22 532.24C40.41 552.3 13.64 575.36 18.35 602.41C20.22 613.16 33.4 629.47 37.84 638.53C50.36 664.07 54.83 681 80.71 694.89C83.64 696.47 92.24 714.85 94.63 718.18C106.45 734.91 127.76 749.07 148.16 752.4C201.32 761.11 261.79 721.99 303.49 776.21C314.03 789.92 315.91 808.92 316.83 825.59C311.54 824.6 305.18 823.6 300.02 822.41C296.53 804.92 293.71 783.72 275.81 774.14C217.22 745.22 156.89 799.58 99.47 750.3C81.39 734.79 77.25 718.97 64.58 706.99C43.31 686.88 34.52 679.84 22.97 649.37C20.72 643.45 9.48 628.33 5.66 620.24C3.76 616.18 2.32 611.93 1.35 607.56C-9.55 558.82 48.75 524.46 63.24 481.11C73.31 450.99 68.78 428.92 69.88 398.01C76.76 333.11 130.98 267.72 180.61 227.96C194.06 217.18 205.52 210.44 218.73 200.71C213.36 157.64 204.7 114.43 202.7 71.17C202.05 57.01 212.03 39.95 227.04 40.36C262.04 41.31 309.05 84.85 334.73 106.78C337.95 109.55 341.1 112.41 344.17 115.35C347.87 89.8 349.1 47.88 357.47 25.28C360.21 17.88 364.25 11.07 370.59 6.20001C377.13 1.18001 384.24 -0.909986 392.41 0.340014C426.2 5.51001 517.56 101.31 540.79 129.67C549.29 139.96 557.45 150.53 565.27 161.35C570.96 169.27 579.39 182.72 586.26 189.09C596.4 198.48 613.02 205.13 624.56 213.57C932.91 438.93 708.91 902.7 341.41 831.65C338.53 831.11 335.65 830.52 332.8 829.87C332.13 813.58 332.06 799.17 326.07 783.74C315.78 757.24 288.7 736.08 260.87 731.14C201.74 720.63 147.34 765.81 104.52 703.52C135.51 708.19 170.76 707.29 196.92 687.4C194.09 684.96 195.12 671.83 195.15 667.56C167.04 690.58 136.94 694.79 102.06 684.79C77.64 677.79 57.32 659.23 58.9 632.64C59.18 615.46 85.48 594.29 79.49 583.67C71.18 579.12 50.32 584.08 37.12 584.03C42.85 572.84 65.91 543.81 74.56 532.32" fill="#3F75FF"/>
<path d="M237.35 77.53C266.13 95.11 332.48 145.9 353.02 171.31L328.09 176.06C302.66 181.45 278.3 192.31 254.45 202.49C248.52 163.46 240.9 116.44 237.36 77.52L237.35 77.53Z" fill="white"/>
<path d="M644.75 463.83L712.75 331.83L661.75 253.83L573.75 189.83L525.75 116.83L392.75 7.82999L357.75 46.83L354.75 133.83L242.75 52.83L217.75 51.83L227.75 208.83L132.75 283.83L80.75 395.83L74.75 485.83L11.75 585.83L46.75 676.83L100.75 736.83L157.75 765.83L243.75 759.83L289.75 774.83L316.83 825.59L332.8 829.88" fill="#3F75FF"/>
<path d="M51.1699 634.42C65.2199 657.25 82.4699 676.02 101.72 694.56C106.62 699.28 109.35 705.7 112.75 711.49C115.99 717 119.98 722.02 124.58 726.49C133.68 735.33 145.67 740.47 158.12 742.56C208.53 751.02 268.31 722.78 312.04 758.39C333.87 776.17 343.7 803.47 345.22 830.66" stroke="white" stroke-width="12" stroke-miterlimit="10"/>
<path d="M336.75 180.83C299.94 185.68 293 191.5 259.66 209.1C252.5 214.5 246.5 218.5 238.5 223.5L234.66 226.1C211.66 240.1 192.66 257.1 173.66 276.1C161.66 289.1 151.66 302.1 141.66 317.1C131.66 332.1 124.66 347.1 116.66 363.1C115.66 366.1 115.66 368.1 114.66 371.1C110.66 393.1 109.66 415.1 107.66 437.1C107.66 443.1 108.66 450.1 107.66 456.1C105.66 471.1 100 479.5 93 493.5C89.8401 498.4 86.9599 505.5 85.6599 508.1C79.2099 521 74.6599 530.1 67.6599 541.1C63.9053 547 59.6599 553.1 54.8799 558.88" stroke="white" stroke-width="12" stroke-miterlimit="10"/>
<path d="M48.9746 582.896L49.0459 583.023L49.1758 583.092L68.627 593.379L49.3584 604.002L49.2295 604.073L49.1602 604.202L38.7305 623.417L27.9746 604.374L27.9023 604.247L27.7734 604.178L8.32129 593.89L27.5908 583.268L27.7188 583.197L27.7891 583.068L38.2178 563.852L48.9746 582.896Z" fill="white" stroke="white"/>
<path d="M678.75 348.83L548.75 224.83L397.75 39.83L377.75 155.83" stroke="white" stroke-width="10" stroke-miterlimit="10"/>
<path d="M687.208 329.953L687.282 330.079L687.413 330.146L712.168 342.73L688.217 356.789L688.09 356.863L688.023 356.993L675.438 381.747L661.391 357.797L661.316 357.671L661.187 357.605L636.431 345.019L660.383 330.961L660.509 330.887L660.575 330.757L673.16 306.001L687.208 329.953Z" fill="white" stroke="white"/>
<path d="M556.084 213.563L556.155 213.691L556.284 213.761L572.969 222.699L556.446 231.924L556.318 231.995L556.249 232.124L547.32 248.809L538.087 232.286L538.016 232.158L537.887 232.089L521.201 223.15L537.724 213.927L537.852 213.855L537.921 213.727L546.859 197.041L556.084 213.563Z" fill="white" stroke="white"/>
<path d="M387.532 159.933L387.604 160.061L387.732 160.13L405.987 169.957L387.856 180.023L387.729 180.094L387.659 180.223L377.832 198.477L367.767 180.357L367.695 180.229L367.566 180.16L349.311 170.323L367.442 160.257L367.57 160.186L367.64 160.057L377.466 141.811L387.532 159.933Z" fill="white" stroke="white"/>
</g>
<defs>
<clipPath id="clip0_280_4810">
<rect width="769.89" height="838.99" fill="white"/>
</clipPath>
</defs>
</svg>
