<svg width="1313" height="1135" viewBox="0 0 1313 1135" fill="none" xmlns="http://www.w3.org/2000/svg">
<path d="M345.943 416.264C374.947 411.826 419.943 403.264 419.943 403.264L500.943 591.264L127.943 607.264C127.943 607.264 102.434 563.16 96.9429 531.764C90.4614 494.706 104.943 435.764 104.943 435.764C104.943 435.764 252.605 430.545 345.943 416.264Z" fill="#346CFD"/>
<path d="M1279.27 4.7646C1286.27 2.2627 1305.97 1.27074 1308.77 23.7675C1310.27 35.765 1263.28 125.263 1254.28 134.262C1218.2 170.325 1168.39 232.626 1168.28 232.762C1168.28 232.762 1107.74 306.953 1086.78 363.262C1071.2 405.104 1067.78 561.969 1067.78 562.264V569.323C1069.87 584.523 1069.59 599.946 1068.78 619.259C1066.67 669.48 1030.75 743.224 1027.08 750.649C1051.87 793.514 1079.02 824.49 1102.28 846.26C1125.78 868.264 1102.58 954.501 1111.78 984.26C1120.97 1014.01 1095.79 1108.69 1095.78 1108.76C1095.72 1108.8 1078.97 1121.59 1066.28 1124.76C1053.96 1127.83 1040.78 1129.76 1033.78 1124.76C1026.78 1119.76 1028.48 1102.07 1033.78 1089.26C1036.57 1082.52 1044.25 1073.79 1044.28 1073.76C1049.46 1018.29 1049.05 988.469 1044.28 936.76C1026.61 921.324 1013.28 909.178 997.341 898.917C967.69 965.933 948.472 1001.84 909.277 1052.26H855.776C825.466 1048.98 815.036 1042.51 811.276 1020.26C820.051 1002.63 861.263 992.238 874.276 1002.26C901.095 966.945 930.703 917.994 914.777 904.76C899.073 891.711 769.742 801.787 772.578 796.436C754.004 781.197 722.259 756.803 695.777 744.759C641.42 720.037 560.403 725.142 504.667 733.084L508.277 740.26C508.277 740.26 510.955 924.424 477.277 1035.26C467.796 1066.46 474.799 1094.1 448.777 1113.76C419.955 1135.54 354.137 1138.02 356.277 1113.76C358.418 1089.5 372.277 1068.76 381.277 1064.76C390.277 1060.76 399.777 1060.26 399.777 1060.26C399.794 1060.18 407.03 1025.99 409.277 1003.76C416.249 934.806 415.727 891.918 390.777 827.26C381.436 803.052 376.13 787.263 362.098 768.227C346.928 771.439 331.556 773.8 317.924 774.227C304.413 797.486 134.365 1089.32 103.277 1097.76C70.8988 1106.55 44.7786 1112.76 26.7774 1103.26C8.77632 1093.76 -4.24815 1078.71 8.7774 1061.26C27.0554 1050.24 40.4473 1048.37 67.7774 1049.76L170.777 804.76L159.708 736.131C157.368 731.846 96.9113 620.501 91.7813 541.764C89.776 510.985 94.7698 462.856 94.7794 462.764L388.277 404.759H418.277C418.421 404.706 525.175 365.611 596.777 359.759C717.919 349.857 792.394 368.761 901.777 421.759C917.778 429.511 933.394 435.775 948.282 441.791C971.658 441.061 999.418 419.776 1005.78 375.261C1011.66 334.058 1053.04 276.652 1093.28 219.762C1136.56 158.557 1184.87 142.065 1220.78 76.2617C1242.3 36.8221 1236.97 19.8947 1279.27 4.7646Z" fill="#3F75FF"/>
<path d="M1279.27 4.7646L1278.09 1.46897L1278.09 1.469L1279.27 4.7646ZM1308.77 23.7675L1312.25 23.3346V23.3344L1308.77 23.7675ZM1254.28 134.262L1256.75 136.737L1256.75 136.737L1254.28 134.262ZM1168.28 232.762L1170.99 234.974L1171 234.961L1171.01 234.947L1168.28 232.762ZM1086.78 363.262L1083.5 362.04V362.04L1086.78 363.262ZM1067.78 562.264L1064.28 562.188L1064.28 562.226V562.264H1067.78ZM1067.78 569.323H1064.28V569.563L1064.31 569.8L1067.78 569.323ZM1068.78 619.259L1072.27 619.405V619.405L1068.78 619.259ZM1027.08 750.649L1023.94 749.097L1023.11 750.778L1024.05 752.402L1027.08 750.649ZM1102.28 846.26L1099.88 848.815V848.815L1102.28 846.26ZM1111.78 984.26L1108.43 985.293V985.293L1111.78 984.26ZM1095.78 1108.76L1097.9 1111.54L1098.85 1110.81L1099.16 1109.66L1095.78 1108.76ZM1066.28 1124.76L1067.12 1128.16V1128.16L1066.28 1124.76ZM1033.78 1124.76L1031.74 1127.61H1031.74L1033.78 1124.76ZM1033.78 1089.26L1030.54 1087.92V1087.92L1033.78 1089.26ZM1044.28 1073.76L1046.9 1076.07L1047.66 1075.22L1047.76 1074.09L1044.28 1073.76ZM1044.28 936.76L1047.76 936.438L1047.63 935.045L1046.58 934.124L1044.28 936.76ZM997.341 898.917L999.236 895.974L995.796 893.759L994.14 897.501L997.341 898.917ZM909.277 1052.26V1055.76H910.99L912.041 1054.41L909.277 1052.26ZM855.776 1052.26L855.4 1055.74L855.587 1055.76H855.776V1052.26ZM811.276 1020.26L808.143 1018.7L807.636 1019.72L807.825 1020.84L811.276 1020.26ZM874.276 1002.26L872.141 1005.03L874.933 1007.18L877.064 1004.38L874.276 1002.26ZM914.777 904.76L917.014 902.068L917.014 902.068L914.777 904.76ZM772.578 796.436L775.671 798.076L777.011 795.546L774.798 793.731L772.578 796.436ZM695.777 744.759L697.226 741.573V741.573L695.777 744.759ZM504.667 733.084L504.173 729.619L499.351 730.306L501.54 734.657L504.667 733.084ZM508.277 740.26L511.777 740.209L511.765 739.405L511.404 738.687L508.277 740.26ZM477.277 1035.26L480.626 1036.28V1036.28L477.277 1035.26ZM448.777 1113.76L450.887 1116.55H450.887L448.777 1113.76ZM356.277 1113.76L352.791 1113.45V1113.45L356.277 1113.76ZM381.277 1064.76L379.856 1061.56V1061.56L381.277 1064.76ZM399.777 1060.26L399.961 1063.75L402.645 1063.61L403.202 1060.98L399.777 1060.26ZM409.277 1003.76L412.76 1004.11V1004.11L409.277 1003.76ZM390.777 827.26L387.512 828.52V828.52L390.777 827.26ZM362.098 768.227L364.915 766.15L363.578 764.336L361.373 764.802L362.098 768.227ZM317.924 774.227L317.814 770.729L315.873 770.79L314.897 772.469L317.924 774.227ZM103.277 1097.76L104.194 1101.14V1101.14L103.277 1097.76ZM26.7774 1103.26L25.1433 1106.35H25.1433L26.7774 1103.26ZM8.7774 1061.26L6.96986 1058.26L6.3829 1058.62L5.97282 1059.17L8.7774 1061.26ZM67.7774 1049.76L67.5994 1053.26L70.0521 1053.38L71.0039 1051.12L67.7774 1049.76ZM170.777 804.76L174.004 806.116L174.392 805.192L174.233 804.202L170.777 804.76ZM159.708 736.131L163.163 735.573L163.068 734.98L162.78 734.453L159.708 736.131ZM91.7813 541.764L88.2887 541.991V541.991L91.7813 541.764ZM94.7794 462.764L94.1008 459.33L91.565 459.831L91.2981 462.402L94.7794 462.764ZM388.277 404.759V401.259H387.935L387.599 401.325L388.277 404.759ZM418.277 404.759V408.259H418.898L419.481 408.045L418.277 404.759ZM596.777 359.759L596.492 356.27V356.27L596.777 359.759ZM901.777 421.759L900.251 424.909V424.909L901.777 421.759ZM948.282 441.791L946.971 445.036L947.655 445.312L948.392 445.289L948.282 441.791ZM1005.78 375.261L1002.31 374.766V374.766L1005.78 375.261ZM1093.28 219.762L1090.42 217.741V217.741L1093.28 219.762ZM1220.78 76.2617L1223.85 77.9384V77.9384L1220.78 76.2617ZM1279.27 4.7646L1280.45 8.06022C1283.36 7.0213 1289.17 6.26686 1294.39 8.17824C1296.93 9.10747 1299.3 10.6532 1301.2 13.1003C1303.1 15.5524 1304.66 19.0873 1305.3 24.2007L1308.77 23.7675L1312.25 23.3344C1311.48 17.1994 1309.53 12.422 1306.73 8.81102C1303.93 5.19507 1300.41 2.92701 1296.8 1.60488C1289.72 -0.986484 1282.19 0.00600195 1278.09 1.46897L1279.27 4.7646ZM1308.77 23.7675L1305.3 24.2004C1305.32 24.3792 1305.32 24.985 1305.08 26.1981C1304.85 27.3399 1304.45 28.785 1303.9 30.5214C1302.78 33.9904 1301.08 38.3962 1298.93 43.4611C1294.64 53.5781 1288.66 66.0936 1282.34 78.5553C1276.02 91.0112 1269.38 103.363 1263.76 113.146C1260.96 118.04 1258.42 122.265 1256.32 125.529C1254.16 128.893 1252.62 130.965 1251.8 131.787L1254.28 134.262L1256.75 136.737C1258.18 135.308 1260.09 132.615 1262.21 129.316C1264.4 125.916 1267 121.579 1269.84 116.63C1275.52 106.726 1282.22 94.266 1288.58 81.7229C1294.94 69.1856 1301 56.5146 1305.38 46.1953C1307.56 41.042 1309.36 36.4172 1310.56 32.6602C1311.17 30.7836 1311.64 29.067 1311.94 27.5753C1312.22 26.1549 1312.41 24.6555 1312.25 23.3346L1308.77 23.7675ZM1254.28 134.262L1251.8 131.786C1215.57 168.012 1165.63 230.47 1165.54 230.576L1168.28 232.762L1171.01 234.947C1171.14 234.781 1220.84 172.638 1256.75 136.737L1254.28 134.262ZM1168.28 232.762C1165.57 230.549 1165.57 230.55 1165.56 230.55C1165.56 230.551 1165.56 230.552 1165.56 230.554C1165.56 230.556 1165.56 230.56 1165.55 230.565C1165.54 230.574 1165.53 230.589 1165.52 230.607C1165.49 230.645 1165.44 230.7 1165.38 230.772C1165.27 230.917 1165.09 231.132 1164.87 231.414C1164.41 231.977 1163.75 232.808 1162.89 233.885C1161.19 236.037 1158.73 239.171 1155.71 243.105C1149.69 250.973 1141.43 262.052 1132.51 274.901C1114.73 300.528 1094.14 333.453 1083.5 362.04L1086.78 363.262L1090.06 364.483C1100.38 336.762 1120.54 304.437 1138.27 278.891C1147.1 266.153 1155.29 255.165 1161.27 247.362C1164.26 243.462 1166.69 240.359 1168.38 238.234C1169.22 237.172 1169.88 236.354 1170.32 235.803C1170.54 235.528 1170.71 235.319 1170.82 235.18C1170.88 235.111 1170.92 235.058 1170.95 235.024C1170.96 235.007 1170.97 234.994 1170.98 234.986C1170.98 234.982 1170.99 234.979 1170.99 234.977C1170.99 234.976 1170.99 234.975 1170.99 234.975C1170.99 234.974 1170.99 234.974 1168.28 232.762ZM1086.78 363.262L1083.5 362.04C1079.44 372.932 1076.27 390.959 1073.76 411.543C1071.24 432.233 1069.35 455.849 1067.94 478.123C1065.14 522.677 1064.28 562.023 1064.28 562.188L1067.78 562.264L1071.28 562.34C1071.28 562.21 1072.13 522.976 1074.93 478.563C1076.33 456.354 1078.21 432.889 1080.71 412.39C1083.22 391.785 1086.32 374.512 1090.06 364.483L1086.78 363.262ZM1067.78 562.264H1064.28V569.323H1067.78H1071.28V562.264H1067.78ZM1067.78 569.323L1064.31 569.8C1066.35 584.659 1066.09 599.803 1065.28 619.112L1068.78 619.259L1072.27 619.405C1073.08 600.09 1073.38 584.387 1071.24 568.846L1067.78 569.323ZM1068.78 619.259L1065.28 619.112C1064.25 643.63 1054.92 674.179 1045.24 699.764C1035.6 725.258 1025.75 745.437 1023.94 749.097L1027.08 750.649L1030.22 752.202C1032.08 748.436 1042.03 728.031 1051.79 702.241C1061.51 676.542 1071.2 645.109 1072.27 619.405L1068.78 619.259ZM1027.08 750.649L1024.05 752.402C1049.03 795.598 1076.41 826.839 1099.88 848.815L1102.28 846.26L1104.67 843.705C1081.64 822.142 1054.71 791.43 1030.11 748.897L1027.08 750.649ZM1102.28 846.26L1099.88 848.815C1104.79 853.41 1107.65 861.819 1108.9 873.301C1110.14 884.628 1109.75 898.147 1108.9 912.138C1108.05 925.976 1106.74 940.462 1106.22 953.094C1105.71 965.681 1105.94 977.211 1108.43 985.293L1111.78 984.26L1115.12 983.227C1113.02 976.43 1112.7 966.02 1113.22 953.38C1113.73 940.786 1115.02 926.757 1115.89 912.565C1116.74 898.527 1117.17 884.5 1115.86 872.54C1114.57 860.734 1111.51 850.112 1104.67 843.705L1102.28 846.26ZM1111.78 984.26L1108.43 985.293C1110.51 992.033 1110.73 1002.93 1109.67 1015.97C1108.61 1028.86 1106.35 1043.35 1103.79 1056.99C1101.23 1070.62 1098.38 1083.34 1096.17 1092.65C1093.96 1101.97 1092.39 1107.87 1092.39 1107.86L1095.78 1108.76L1099.16 1109.66C1099.18 1109.59 1105.5 1085.81 1110.67 1058.29C1113.25 1044.53 1115.56 1029.77 1116.64 1016.54C1117.71 1003.45 1117.63 991.361 1115.12 983.227L1111.78 984.26ZM1095.78 1108.76L1093.65 1105.98C1093.67 1105.96 1089.57 1109.1 1083.92 1112.62C1078.19 1116.18 1071.21 1119.92 1065.43 1121.36L1066.28 1124.76L1067.12 1128.16C1074.03 1126.43 1081.78 1122.19 1087.62 1118.56C1093.53 1114.88 1097.83 1111.6 1097.9 1111.54L1095.78 1108.76ZM1066.28 1124.76L1065.43 1121.36C1059.35 1122.88 1053.24 1124.06 1047.89 1124.29C1042.42 1124.52 1038.35 1123.72 1035.81 1121.91L1033.78 1124.76L1031.74 1127.61C1036.2 1130.8 1042.22 1131.53 1048.18 1131.28C1054.24 1131.03 1060.89 1129.71 1067.12 1128.16L1066.28 1124.76ZM1033.78 1124.76L1035.81 1121.91C1034.92 1121.28 1034.05 1120.05 1033.44 1117.93C1032.83 1115.83 1032.56 1113.14 1032.66 1110.05C1032.86 1103.86 1034.5 1096.65 1037.01 1090.6L1033.78 1089.26L1030.54 1087.92C1027.75 1094.68 1025.89 1102.71 1025.67 1109.83C1025.55 1113.38 1025.84 1116.85 1026.72 1119.88C1027.59 1122.88 1029.13 1125.74 1031.74 1127.61L1033.78 1124.76ZM1033.78 1089.26L1037.01 1090.6C1038.23 1087.66 1040.62 1084.08 1042.86 1081.09C1045.06 1078.17 1046.92 1076.05 1046.9 1076.07L1044.28 1073.76L1041.65 1071.45C1041.6 1071.5 1039.61 1073.76 1037.26 1076.89C1034.96 1079.96 1032.12 1084.12 1030.54 1087.92L1033.78 1089.26ZM1044.28 1073.76L1047.76 1074.09C1052.97 1018.39 1052.55 988.348 1047.76 936.438L1044.28 936.76L1040.79 937.082C1045.55 988.59 1045.95 1018.2 1040.79 1073.43L1044.28 1073.76ZM1044.28 936.76L1046.58 934.124C1029.01 918.768 1015.44 906.409 999.236 895.974L997.341 898.917L995.446 901.86C1011.11 911.948 1024.22 923.879 1041.97 939.395L1044.28 936.76ZM997.341 898.917L994.14 897.501C964.557 964.364 945.474 999.995 906.514 1050.11L909.277 1052.26L912.041 1054.41C951.47 1003.69 970.823 967.502 1000.54 900.333L997.341 898.917ZM909.277 1052.26V1048.76H855.776V1052.26V1055.76H909.277V1052.26ZM855.776 1052.26L856.153 1048.78C841.024 1047.14 831.647 1044.76 825.578 1040.51C819.784 1036.45 816.527 1030.32 814.727 1019.68L811.276 1020.26L807.825 1020.84C809.786 1032.44 813.623 1040.68 821.562 1046.24C829.225 1051.61 840.218 1054.1 855.4 1055.74L855.776 1052.26ZM811.276 1020.26L814.41 1021.82C816.203 1018.22 819.83 1014.69 824.841 1011.57C829.805 1008.48 835.861 1005.97 842.107 1004.27C848.355 1002.56 854.655 1001.71 860.081 1001.86C865.611 1002.01 869.746 1003.19 872.141 1005.03L874.276 1002.26L876.412 999.487C872.3 996.32 866.403 995.034 860.272 994.866C854.036 994.695 847.045 995.666 840.267 997.512C833.486 999.36 826.781 1002.12 821.143 1005.63C815.552 1009.1 810.737 1013.49 808.143 1018.7L811.276 1020.26ZM874.276 1002.26L877.064 1004.38C890.537 986.635 904.802 965.354 913.713 946.741C918.156 937.461 921.38 928.615 922.407 921.084C923.423 913.64 922.389 906.534 917.014 902.068L914.777 904.76L912.541 907.452C915.129 909.603 916.366 913.578 915.471 920.138C914.588 926.611 911.72 934.692 907.399 943.718C898.782 961.718 884.834 982.57 871.489 1000.14L874.276 1002.26ZM914.777 904.76L917.014 902.068C909.05 895.45 872.582 869.557 838.789 844.884C821.821 832.496 805.472 820.376 793.552 811.03C787.581 806.348 782.782 802.41 779.584 799.502C777.969 798.034 776.862 796.918 776.226 796.153C775.893 795.753 775.812 795.593 775.829 795.629C775.839 795.648 775.945 795.859 776 796.212C776.056 796.576 776.085 797.294 775.671 798.076L772.578 796.436L769.486 794.797C768.527 796.606 769.346 798.311 769.555 798.733C769.897 799.423 770.382 800.074 770.845 800.63C771.799 801.777 773.195 803.154 774.875 804.682C778.269 807.767 783.232 811.833 789.232 816.538C801.255 825.965 817.688 838.145 834.661 850.538C868.75 875.427 904.8 901.02 912.541 907.452L914.777 904.76ZM772.578 796.436L774.798 793.731C756.228 778.495 724.17 753.827 697.226 741.573L695.777 744.759L694.328 747.945C720.349 759.779 751.781 783.9 770.358 799.142L772.578 796.436ZM695.777 744.759L697.226 741.573C669.432 728.932 635.05 724 600.824 723.173C566.549 722.346 532.155 725.632 504.173 729.619L504.667 733.084L505.161 736.549C532.916 732.594 566.898 729.356 600.655 730.171C634.46 730.987 667.765 735.864 694.328 747.945L695.777 744.759ZM504.667 733.084L501.54 734.657L505.151 741.833L508.277 740.26L511.404 738.687L507.794 731.511L504.667 733.084ZM508.277 740.26C504.778 740.311 504.778 740.311 504.778 740.312C504.778 740.313 504.778 740.315 504.778 740.318C504.778 740.323 504.778 740.331 504.778 740.342C504.779 740.363 504.779 740.396 504.78 740.439C504.781 740.526 504.782 740.657 504.784 740.832C504.788 741.18 504.794 741.7 504.799 742.384C504.811 743.752 504.823 745.777 504.827 748.394C504.834 753.63 504.807 761.238 504.67 770.716C504.395 789.675 503.679 816.105 501.912 845.99C498.375 905.838 490.64 979.241 473.929 1034.24L477.277 1035.26L480.626 1036.28C497.592 980.442 505.357 906.346 508.9 846.403C510.674 816.392 511.393 789.854 511.669 770.818C511.807 761.299 511.834 753.653 511.827 748.385C511.823 745.75 511.811 743.71 511.799 742.326C511.793 741.634 511.788 741.107 511.784 740.751C511.782 740.573 511.78 740.439 511.779 740.348C511.778 740.303 511.778 740.268 511.778 740.245C511.777 740.233 511.777 740.225 511.777 740.219C511.777 740.216 511.777 740.213 511.777 740.212C511.777 740.21 511.777 740.209 508.277 740.26ZM477.277 1035.26L473.929 1034.24C471.483 1042.29 470.114 1050.07 469.022 1057.41C467.917 1064.84 467.119 1071.63 465.8 1078.14C463.21 1090.93 458.753 1101.84 446.668 1110.97L448.777 1113.76L450.887 1116.55C464.823 1106.02 469.876 1093.28 472.66 1079.53C474.028 1072.78 474.883 1065.58 475.945 1058.44C477.02 1051.21 478.331 1043.83 480.626 1036.28L477.277 1035.26ZM448.777 1113.76L446.668 1110.97C433.039 1121.26 410.188 1127.22 390.862 1127.52C381.212 1127.67 372.866 1126.4 367.208 1123.86C364.4 1122.6 362.447 1121.11 361.26 1119.52C360.124 1118 359.572 1116.24 359.764 1114.07L356.277 1113.76L352.791 1113.45C352.448 1117.34 353.484 1120.81 355.651 1123.71C357.765 1126.54 360.829 1128.67 364.34 1130.25C371.323 1133.38 380.831 1134.68 390.971 1134.52C411.225 1134.2 435.694 1128.03 450.887 1116.55L448.777 1113.76ZM356.277 1113.76L359.764 1114.07C360.786 1102.49 364.614 1091.71 369.263 1083.37C371.584 1079.2 374.08 1075.7 376.476 1073.03C378.915 1070.33 381.082 1068.68 382.699 1067.96L381.277 1064.76L379.856 1061.56C376.973 1062.84 374.032 1065.29 371.274 1068.35C368.474 1071.46 365.683 1075.41 363.148 1079.96C358.081 1089.05 353.91 1100.77 352.791 1113.45L356.277 1113.76ZM381.277 1064.76L382.699 1067.96C386.855 1066.11 391.184 1065.05 394.518 1064.46C396.174 1064.16 397.56 1063.98 398.522 1063.88C399.002 1063.83 399.375 1063.8 399.622 1063.78C399.745 1063.77 399.837 1063.76 399.894 1063.76C399.923 1063.76 399.943 1063.76 399.954 1063.76C399.96 1063.75 399.964 1063.75 399.965 1063.75C399.965 1063.75 399.965 1063.75 399.965 1063.75C399.964 1063.75 399.964 1063.75 399.964 1063.75C399.963 1063.75 399.963 1063.75 399.963 1063.75C399.962 1063.75 399.961 1063.75 399.777 1060.26C399.593 1056.76 399.593 1056.76 399.592 1056.76C399.592 1056.76 399.591 1056.76 399.59 1056.76C399.589 1056.76 399.588 1056.76 399.587 1056.76C399.584 1056.77 399.58 1056.77 399.576 1056.77C399.568 1056.77 399.558 1056.77 399.545 1056.77C399.52 1056.77 399.486 1056.77 399.443 1056.77C399.357 1056.78 399.235 1056.79 399.081 1056.8C398.773 1056.82 398.334 1056.86 397.783 1056.92C396.683 1057.04 395.131 1057.24 393.287 1057.56C389.621 1058.22 384.7 1059.41 379.856 1061.56L381.277 1064.76ZM399.777 1060.26L403.202 1060.98C403.211 1060.94 410.489 1026.57 412.76 1004.11L409.277 1003.76L405.795 1003.41C403.57 1025.42 396.378 1059.42 396.353 1059.53L399.777 1060.26ZM409.277 1003.76L412.76 1004.11C419.761 934.859 419.264 891.362 394.043 826L390.777 827.26L387.512 828.52C412.19 892.475 412.736 934.753 405.795 1003.41L409.277 1003.76ZM390.777 827.26L394.043 826C384.753 801.925 379.283 785.642 364.915 766.15L362.098 768.227L359.28 770.303C372.976 788.883 378.12 804.179 387.512 828.52L390.777 827.26ZM362.098 768.227L361.373 764.802C346.306 767.993 331.158 770.311 317.814 770.729L317.924 774.227L318.034 777.726C331.954 777.289 347.55 774.885 362.823 771.651L362.098 768.227ZM317.924 774.227L314.897 772.469C308.147 784.09 262.28 862.825 214.224 939.697C190.192 978.14 165.642 1016.07 145.177 1044.89C134.939 1059.31 125.769 1071.39 118.226 1080.1C114.452 1084.46 111.14 1087.91 108.348 1090.37C105.449 1092.92 103.475 1094.08 102.361 1094.38L103.277 1097.76L104.194 1101.14C106.965 1100.39 109.963 1098.27 112.977 1095.62C116.099 1092.86 119.641 1089.16 123.517 1084.68C131.277 1075.72 140.598 1063.43 150.885 1048.95C171.47 1019.95 196.105 981.886 220.16 943.407C268.277 866.437 314.19 787.624 320.95 775.986L317.924 774.227ZM103.277 1097.76L102.361 1094.38C86.1404 1098.78 71.7631 1102.46 59.2388 1103.89C46.7086 1105.32 36.5073 1104.44 28.4115 1100.16L26.7774 1103.26L25.1433 1106.35C35.0487 1111.58 46.9081 1112.34 60.0329 1110.85C73.1637 1109.35 88.0359 1105.52 104.194 1101.14L103.277 1097.76ZM26.7774 1103.26L28.4115 1100.16C19.6621 1095.55 12.6143 1089.81 9.21716 1083.57C7.55269 1080.51 6.78609 1077.37 7.05161 1074.13C7.3177 1070.89 8.64222 1067.29 11.582 1063.35L8.7774 1061.26L5.97282 1059.17C2.39981 1063.95 0.4678 1068.78 0.0750782 1073.56C-0.318215 1078.35 0.854083 1082.84 3.06767 1086.91C7.42667 1094.93 15.8916 1101.47 25.1433 1106.35L26.7774 1103.26ZM8.7774 1061.26L10.5849 1064.26C19.4415 1058.92 26.965 1055.88 35.5185 1054.3C44.1531 1052.7 54.0014 1052.56 67.5994 1053.26L67.7774 1049.76L67.9554 1046.26C54.2233 1045.56 43.7106 1045.66 34.2473 1047.41C24.7028 1049.17 16.3913 1052.58 6.96986 1058.26L8.7774 1061.26ZM67.7774 1049.76L71.0039 1051.12L174.004 806.116L170.777 804.76L167.551 803.403L64.5509 1048.4L67.7774 1049.76ZM170.777 804.76L174.233 804.202L163.163 735.573L159.708 736.131L156.253 736.688L167.322 805.317L170.777 804.76ZM159.708 736.131L162.78 734.453C161.639 732.365 146.002 703.573 130.018 665.512C113.996 627.359 97.7989 580.29 95.2739 541.536L91.7813 541.764L88.2887 541.991C90.8938 581.975 107.49 629.947 123.564 668.222C139.676 706.589 155.436 735.612 156.636 737.809L159.708 736.131ZM91.7813 541.764L95.2739 541.536C93.2912 511.105 98.2449 463.277 98.2607 463.125L94.7794 462.764L91.2981 462.402C91.2947 462.435 86.2607 510.865 88.2887 541.991L91.7813 541.764ZM94.7794 462.764L95.4579 466.197L388.956 408.192L388.277 404.759L387.599 401.325L94.1008 459.33L94.7794 462.764ZM388.277 404.759V408.259H418.277V404.759V401.259H388.277V404.759ZM418.277 404.759L419.481 408.045C419.721 407.957 526.018 369.054 597.062 363.247L596.777 359.759L596.492 356.27C524.332 362.168 417.122 401.455 417.074 401.472L418.277 404.759ZM596.777 359.759L597.062 363.247C657.38 358.317 705.931 360.569 752.957 370.595C800.005 380.625 845.685 398.47 900.251 424.909L901.777 421.759L903.304 418.609C848.487 392.049 802.238 373.944 754.417 363.748C706.574 353.548 657.317 351.299 596.492 356.27L596.777 359.759ZM901.777 421.759L900.251 424.909C916.376 432.721 932.103 439.029 946.971 445.036L948.282 441.791L949.594 438.546C934.685 432.522 919.18 426.301 903.304 418.609L901.777 421.759ZM948.282 441.791L948.392 445.289C973.876 444.493 1002.71 421.514 1009.24 375.756L1005.78 375.261L1002.31 374.766C996.131 418.038 969.44 437.628 948.173 438.293L948.282 441.791ZM1005.78 375.261L1009.24 375.756C1012.08 355.904 1023.56 331.768 1039.64 305.206C1055.67 278.725 1075.99 250.268 1096.14 221.783L1093.28 219.762L1090.42 217.741C1070.33 246.146 1049.84 274.837 1033.65 301.582C1017.51 328.246 1005.36 353.415 1002.31 374.766L1005.78 375.261ZM1093.28 219.762L1096.14 221.783C1117.51 191.555 1140.09 172.401 1162.15 152.324C1184.2 132.252 1205.61 111.362 1223.85 77.9384L1220.78 76.2617L1217.71 74.585C1200.03 106.964 1179.33 127.222 1157.44 147.147C1135.55 167.069 1112.33 186.763 1090.42 217.741L1093.28 219.762ZM1220.78 76.2617L1223.85 77.9384C1229.31 67.9302 1233.07 59.3542 1236.26 51.9688C1239.48 44.5249 1242.06 38.4832 1245.23 33.2004C1251.36 23.015 1259.84 15.4307 1280.45 8.06019L1279.27 4.7646L1278.09 1.469C1256.4 9.22851 1246.4 17.6729 1239.23 29.5937C1235.76 35.3639 1232.99 41.8946 1229.84 49.1898C1226.66 56.5435 1223.01 64.8734 1217.71 74.585L1220.78 76.2617Z" fill="white"/>
<path d="M368.957 494.753L371.004 491.433C372.497 488.743 373.677 485.892 374.524 482.934L375.553 479.472C376.264 476.8 376.744 473.187 376.689 470.381C376.688 470.337 376.687 470.293 376.686 470.249L376.684 470.188L376.688 470.188L376.665 466.657C376.53 464.512 376.272 462.439 376.041 460.502C375.778 458.297 374.08 451.746 374.509 450.208C376.06 444.667 381.347 437.333 384.367 432.201C392.237 418.819 396.399 405.591 396.065 389.964C395.915 382.924 395.058 376.069 392.41 369.452C389.018 360.978 383.158 353.845 378.229 346.238C374.475 340.443 371.438 334.606 368.162 328.551C369.113 324.883 369.941 321.183 370.641 317.458C371.629 312.17 372.084 306.045 374.631 301.522C377.29 300.589 379.961 299.69 382.643 298.827C381.056 297.934 375.517 295.184 374.875 294.102C374.603 292.114 375.795 288.734 376.291 286.636C378.267 278.585 381.203 270.801 385.038 263.452C387.47 258.88 390.075 254.404 392.853 250.033C397.832 242.116 408.72 226.506 410.548 217.603C410.963 215.586 411.079 213.016 409.282 211.604C407.879 210.502 405.858 210.528 404.186 210.803C395.346 212.255 370.551 227.931 361.547 233.215C339.206 246.33 315.313 257.411 290.259 264.173C286.409 265.211 282.172 266.655 278.209 267.092C274.432 267.508 269.347 265.518 265.598 264.662C262.873 264.06 260.133 263.526 257.383 263.062C248.118 261.453 239.226 260.48 229.827 260.605C227.672 255.015 224.064 248.59 221.272 243.133C212.622 226.222 193.992 190.197 176.562 182.39C173.697 181.107 170.274 180.331 167.132 180.902C154.089 183.208 151.409 196.891 146.561 207.205C144.372 211.864 142.466 216.744 140.362 221.447C134.151 236.115 136.773 247.556 132.773 264.662C128.773 281.768 116.822 320.029 116.822 320.029C97.2734 365.768 90.1644 397.007 91.8428 471.953C96.2598 493.566 127.809 511.8 147.663 520.466C149.267 521.165 151.437 522.016 152.924 522.844L154.96 523.509C166.485 527.69 178.107 530.441 189.967 533.439C221.901 541.517 255.095 552.208 281.92 525.667C301.412 532.804 326.357 533.358 340.524 515.915C341.873 514.253 344.331 511.665 345.9 510.273C352.408 509.101 355.437 507.88 360.931 503.855L363.57 501.436C365.788 499.062 367.148 497.503 368.957 494.753Z" fill="white"/>
<path d="M285.412 338.362C285.53 338.415 285.65 338.468 285.767 338.52C292.953 344.874 301.029 357.301 302.855 366.197C304.521 374.307 302.753 382.372 298.991 388.283C306.408 400.574 312.105 425.971 313.472 440.176C311.812 436.313 310.255 431.123 308.835 427.072C305.929 418.652 302.975 410.048 299.506 401.876C294.433 389.926 291.155 384.889 277.914 382.504C264.468 380.086 254.671 382.297 242.015 386.035C243.95 410.538 260.426 426.94 285.78 422.125C288.853 421.542 291.766 420.74 294.801 420.008C295.075 420.143 295.342 420.288 295.605 420.44C300.971 423.498 302.911 427.275 305.482 432.669C306.391 434.577 307.152 436.296 307.708 438.345C302.259 433.225 300.836 430.676 294.027 426.392C280.763 430.028 266.318 430.346 254.551 422.264C248.589 418.167 244.919 412.854 241.641 406.558C238.65 400.382 237.251 394.338 236.833 387.554C233.041 388.689 229.689 389.517 225.747 390.082C212.856 391.927 201.474 388.591 188.442 389.504C174.187 390.505 161.297 395.221 147.19 395.764C140.757 396.008 134.322 395.345 128.074 393.797C127.111 394.156 126.134 394.571 125.18 394.96C123.672 398.48 122.117 401.981 120.514 405.459C119.227 401.887 117.814 398.348 116.64 394.74C113.35 393.074 109.574 391.459 106.181 389.861C109.518 388.422 113.467 387.011 116.911 385.648C118.361 382.842 120.154 378.362 121.545 375.299C122.903 378.447 124.305 382.697 125.475 385.993C129.28 387.582 134.086 390.246 138.083 390.402C142.757 390.612 147.441 390.443 152.087 389.896C164.276 388.392 176.366 384.536 188.767 383.931C193.592 383.693 198.551 383.779 203.351 384.245C210.589 384.947 218.273 386.166 225.544 385C235.719 383.366 245.312 378.997 255.661 377.331C267.073 375.494 279.443 375.648 290.109 380.639C292.1 381.572 293.862 382.862 295.637 384.128C300.069 370.117 296.474 359.636 290.141 346.954C288.687 344.042 286.854 341.252 285.412 338.362Z" fill="#FEFEFE"/>
<path d="M341.182 471.539C345.462 471.33 347.834 472.542 352.026 473.193C353.57 473.43 356.857 472.752 357.915 473.421C358.918 474.688 358.998 476.399 359.241 478.013C353.206 482.087 355.465 485.894 348.76 489.327C348.497 488.662 348.539 487.905 348.507 487.158C348.426 485.524 348.505 479.611 346.11 479.641C345.716 480.073 344.643 483.837 343.935 485.351C340.688 478.296 339.238 480.229 334.065 475.107C336.732 473.163 337.91 472.192 341.182 471.539Z" fill="#346CFD"/>
<path d="M249.396 283.563L249.47 283.69L249.6 283.756L257.199 287.669L249.672 291.71L249.543 291.779L249.472 291.907L245.375 299.256L241.15 291.973L241.077 291.846L240.947 291.779L233.347 287.865L240.875 283.825L241.004 283.756L241.075 283.628L245.171 276.279L249.396 283.563Z" fill="white" stroke="white"/>
<path d="M251.396 497.563L251.47 497.69L251.6 497.756L259.199 501.669L251.672 505.71L251.543 505.779L251.472 505.907L247.375 513.256L243.15 505.973L243.077 505.846L242.947 505.779L235.347 501.865L242.875 497.825L243.004 497.756L243.075 497.628L247.171 490.279L251.396 497.563Z" fill="white" stroke="white"/>
<path d="M169.127 186.488C186.396 185.687 210.341 233.292 217.007 246.521L225.697 264.055C227.664 267.956 230.093 272.861 232.634 276.332C236.904 282.166 245.028 289.339 251.72 292.172C250.287 289.657 246.374 285.356 244.419 282.914C240.158 277.593 235.919 272.021 232.802 265.938C253.207 266.584 273.18 271.336 292.609 277.356C299.087 279.362 305.326 281.873 311.849 283.804C302.359 277.601 296.144 274.756 285.688 270.423C307.533 264.837 328.61 256.597 348.45 245.887C355.914 241.913 400.086 215.079 404.809 215.918C405.816 216.694 405.666 217.715 405.183 218.818C397.595 236.143 384.66 250.64 377.277 268.151C375.603 272.15 374.153 276.241 372.934 280.403C371.173 286.508 371.594 287.862 368.491 293.684C366.083 294.63 362.903 295.419 360.219 296.422C362.659 297.881 365.112 299.318 367.578 300.733C368.585 304.189 367.516 307.791 366.855 311.282C366.133 315.002 365.44 318.727 364.774 322.456C354.665 305.695 349.778 303.454 335.066 292.143L335.049 291.918C334.762 287.383 335.892 282.214 338.392 278.449C344.771 268.844 356.455 259.727 365.344 252.42C372.264 246.827 379.104 241.136 385.862 235.349C388.747 232.838 392.96 229.317 395.37 226.544C390.736 228.804 384.935 232.934 380.647 235.916C372.294 241.733 364.167 247.869 356.282 254.309C344.644 263.745 326.435 277.096 330.821 294.137C332.158 295.353 335.234 297.565 336.797 298.795C341.508 302.504 345.338 305.867 349.41 310.214C358.579 320.002 363.22 331.53 369.734 342.987C374.27 350.961 380.676 358.714 385.09 366.778C393.039 381.298 391.788 402.925 385.372 417.831C383.625 421.786 381.665 425.641 379.501 429.384C376.659 434.237 370.663 442.462 369.439 447.53C368.477 451.511 371.021 459.937 371.406 464.401C371.729 468.126 371.626 469.955 371.44 473.734C371.377 473.697 371.314 473.66 371.251 473.624L371.273 473.766L371.162 474.43C371.165 474.432 371.167 474.434 371.17 474.436C371.377 475.39 370.881 476.968 370.687 477.945C369.209 485.412 365.453 492.962 359.795 498.284L372.72 513.985L349.558 533.051L334.604 514.886C330.565 518.719 326.359 521.648 319.974 523.381C313.917 525.024 308.632 525.145 302.437 524.754C284.457 523.623 272.213 515.077 257.099 506.383C257.171 506.348 257.243 506.315 257.315 506.28L257.273 506.266L252.358 503.906C248.356 502.047 243.414 500.244 239.36 499.036C242.194 501.77 246.333 504.514 249.622 506.847C249.61 506.855 249.599 506.863 249.587 506.871L252.562 508.931C252.655 508.879 252.748 508.827 252.841 508.776C259.815 514.022 269.111 519.604 276.845 523.548C276.833 523.559 276.821 523.569 276.81 523.58L282.273 525.766L260.273 549.766L141.273 525.266L96.7734 491.766L99.0166 472.915C98.9536 472.828 98.8902 472.742 98.8271 472.654C95.4162 416.494 98.3544 384.09 117.552 333.862C118.182 331.828 118.837 329.89 119.451 328.394C121.793 322.644 122.654 314.987 122.657 314.958L126.271 304.264L130.59 292.524L132.603 285.702C133.189 283.362 134.805 277.107 136.183 273.569L136.273 273.264L140.071 249.596C140.592 239.265 142.953 229.113 146.897 220.767C148.808 216.725 150.301 212.302 152.205 208.29C156.245 199.779 157.893 187.712 169.127 186.488Z" fill="#3F75FF"/>
<path d="M355.396 503.563L355.47 503.69L355.6 503.756L363.199 507.669L355.672 511.71L355.543 511.779L355.472 511.907L351.375 519.256L347.15 511.973L347.077 511.846L346.947 511.779L339.347 507.865L346.875 503.825L347.004 503.756L347.075 503.628L351.171 496.279L355.396 503.563Z" fill="white" stroke="white"/>
<path d="M1278.37 1.73592C1282.46 0.27299 1289.99 -0.719642 1297.07 1.87166C1300.68 3.19377 1304.2 5.46206 1307 9.07771C1309.8 12.6886 1311.76 17.4664 1312.52 23.6012C1312.69 24.9219 1312.5 26.4221 1312.21 27.8424C1311.91 29.3339 1311.44 31.0509 1310.84 32.9273C1309.63 36.6842 1307.84 41.3093 1305.65 46.4625C1301.27 56.7816 1295.22 69.4528 1288.86 81.9898C1282.49 94.5325 1275.79 106.992 1270.11 116.896C1267.27 121.845 1264.67 126.183 1262.48 129.583C1260.36 132.882 1258.45 135.575 1257.03 137.003C1221.13 172.887 1171.47 234.987 1171.28 235.214L1171.27 235.228L1171.26 235.241L1168.55 233.029L1171.26 235.242C1171.26 235.242 1171.26 235.243 1171.26 235.244C1171.26 235.246 1171.26 235.249 1171.25 235.253C1171.25 235.261 1171.24 235.274 1171.22 235.291C1171.19 235.325 1171.15 235.378 1171.1 235.447C1170.98 235.586 1170.81 235.795 1170.59 236.07C1170.15 236.621 1169.49 237.439 1168.65 238.502C1166.97 240.626 1164.53 243.729 1161.54 247.629C1155.57 255.432 1147.38 266.421 1138.54 279.159C1120.81 304.704 1100.65 337.029 1090.33 364.75C1086.6 374.779 1083.5 392.052 1080.98 412.657C1078.48 433.156 1076.6 456.622 1075.2 478.831C1072.46 522.472 1071.58 561.113 1071.55 562.565V569.354C1073.65 584.816 1073.35 600.457 1072.55 619.671C1071.47 645.376 1061.79 676.81 1052.06 702.509C1043.32 725.625 1034.41 744.414 1031.32 750.773C1055.66 792.472 1082.2 822.68 1104.94 843.97C1111.79 850.377 1114.84 861 1116.14 872.805C1117.45 884.766 1117.02 898.792 1116.16 912.831C1115.29 927.023 1114 941.052 1113.49 953.646C1112.97 966.286 1113.29 976.696 1115.39 983.493C1117.91 991.622 1117.99 1003.7 1116.92 1016.78C1115.84 1030 1113.53 1044.75 1110.95 1058.5C1105.79 1085.98 1099.48 1109.76 1099.43 1109.93L1099.12 1111.08L1098.18 1111.81L1096.05 1109.03L1098.17 1111.81L1098.17 1111.81C1098.17 1111.81 1098.17 1111.81 1098.17 1111.81C1098.17 1111.81 1098.16 1111.82 1098.16 1111.82C1098.15 1111.83 1098.13 1111.84 1098.12 1111.85C1098.08 1111.88 1098.03 1111.92 1097.96 1111.97C1097.83 1112.07 1097.63 1112.21 1097.38 1112.4C1096.88 1112.77 1096.16 1113.3 1095.25 1113.94C1093.44 1115.22 1090.88 1116.96 1087.92 1118.81C1082.08 1122.44 1074.32 1126.7 1067.4 1128.42C1061.16 1129.98 1054.52 1131.29 1048.45 1131.55C1042.5 1131.8 1036.48 1131.06 1032.02 1127.87C1029.4 1126.01 1027.86 1123.15 1026.99 1120.15C1026.11 1117.12 1025.82 1113.65 1025.94 1110.09C1026.17 1102.98 1028.02 1094.94 1030.82 1088.19C1032.39 1084.38 1035.24 1080.21 1037.55 1077.14C1038.73 1075.57 1039.81 1074.22 1040.61 1073.27C1040.81 1073.02 1041 1072.79 1041.17 1072.6C1046.17 1018.56 1045.79 989.051 1041.19 938.735C1025.26 924.798 1013.03 913.782 999.135 904.382C970.354 969.143 950.996 1004.91 912.313 1054.67L911.263 1056.03H855.861L855.673 1056.01C840.492 1054.36 829.499 1051.87 821.836 1046.51C813.897 1040.95 810.059 1032.71 808.099 1021.11L807.909 1019.99L808.417 1018.97C811.011 1013.75 815.826 1009.37 821.417 1005.89C827.054 1002.39 833.76 999.626 840.54 997.779C847.318 995.933 854.31 994.961 860.546 995.132C865.298 995.263 869.909 996.066 873.657 997.894C886.413 980.869 899.463 961.133 907.672 943.984C911.993 934.958 914.861 926.877 915.744 920.404C916.639 913.845 915.402 909.868 912.813 907.717C905.072 901.285 869.023 875.692 834.935 850.804C817.961 838.412 801.528 826.232 789.506 816.805C783.505 812.1 778.542 808.033 775.148 804.948C773.468 803.42 772.072 802.042 771.118 800.896C770.656 800.34 770.17 799.69 769.828 799C769.787 798.917 769.724 798.783 769.654 798.61C750.967 783.336 720.172 759.84 694.602 748.211C668.039 736.13 634.733 731.253 600.928 730.437C569.104 729.669 537.081 732.503 510.264 736.143L511.678 738.953L512.039 739.67L512.051 740.475L508.551 740.526C511.957 740.476 512.048 740.476 512.051 740.478V740.511C512.051 740.534 512.052 740.569 512.053 740.614C512.054 740.705 512.056 740.84 512.058 741.017C512.062 741.373 512.067 741.901 512.072 742.592C512.084 743.976 512.097 746.017 512.101 748.651C512.108 753.92 512.08 761.565 511.942 771.084C511.667 790.12 510.948 816.658 509.174 846.669C505.631 906.611 497.865 980.709 480.899 1036.54C478.604 1044.1 477.293 1051.48 476.219 1058.71C475.157 1065.85 474.301 1073.05 472.934 1079.8C470.149 1093.55 465.096 1106.29 451.161 1116.82C435.968 1128.3 411.498 1134.47 391.245 1134.79C381.105 1134.95 371.596 1133.65 364.614 1130.51C361.103 1128.94 358.039 1126.81 355.925 1123.98C353.758 1121.08 352.721 1117.61 353.064 1113.72C354.183 1101.04 358.354 1089.32 363.421 1080.23C365.956 1075.68 368.748 1071.73 371.548 1068.62C374.306 1065.55 377.247 1063.11 380.13 1061.83C384.973 1059.68 389.894 1058.49 393.561 1057.83C394.941 1057.58 396.158 1057.41 397.145 1057.29C398.84 1049.02 404.202 1022.13 406.068 1003.67C413.009 935.019 412.463 892.74 387.785 828.786C378.7 805.24 373.59 790.158 360.868 772.379C347.021 775.231 332.989 777.359 320.253 777.917C310.873 794.039 266.672 869.707 220.434 943.672C196.379 982.15 171.743 1020.22 151.158 1049.21C140.871 1063.7 131.551 1075.99 123.791 1084.95C119.915 1089.42 116.372 1093.13 113.251 1095.88C110.237 1098.54 107.239 1100.65 104.468 1101.4C88.3097 1105.79 73.4372 1109.61 60.3066 1111.11C47.1818 1112.61 35.3223 1111.85 25.417 1106.62C16.1653 1101.74 7.6998 1095.19 3.3408 1087.18C1.12737 1083.11 -0.0446457 1078.62 0.348611 1073.83C0.741403 1069.04 2.6733 1064.22 6.24607 1059.43L6.65623 1058.88L7.24314 1058.53C16.6644 1052.85 24.9762 1049.44 34.5205 1047.68C43.4115 1046.04 53.2292 1045.85 65.7724 1046.41L167.436 804.592L156.62 737.538C154.118 732.919 139.135 704.915 123.837 668.487C107.764 630.212 91.1675 582.24 88.5625 542.257C87.5436 526.619 88.3055 506.682 89.3076 490.756C89.81 482.773 90.3757 475.757 90.8154 470.736C91.0353 468.225 91.2236 466.212 91.3574 464.825C91.4243 464.131 91.478 463.594 91.5146 463.229C91.5329 463.047 91.547 462.907 91.5566 462.813C91.5614 462.766 91.5649 462.73 91.5674 462.706C91.5686 462.694 91.5696 462.685 91.5703 462.678C91.5706 462.676 91.5711 462.673 91.5713 462.671V462.669L91.8388 460.097L91.9189 460.081C91.2702 393.746 98.6369 363.485 117.096 320.296C117.142 320.148 129.054 282.002 133.046 264.929C137.046 247.823 134.425 236.383 140.635 221.714C142.739 217.012 144.645 212.132 146.835 207.473C151.682 197.159 154.362 183.476 167.405 181.17C170.547 180.599 173.971 181.374 176.836 182.658C194.265 190.465 212.895 226.49 221.546 243.4C224.337 248.857 227.945 255.283 230.1 260.873C239.499 260.748 248.392 261.721 257.656 263.33C260.407 263.794 263.146 264.327 265.871 264.929C269.62 265.785 274.706 267.776 278.482 267.359C282.445 266.922 286.683 265.479 290.532 264.44C315.587 257.678 339.48 246.597 361.82 233.483C370.824 228.198 395.62 212.523 404.459 211.071C406.131 210.796 408.153 210.769 409.556 211.872C411.352 213.284 411.236 215.854 410.821 217.871C408.992 226.774 398.105 242.384 393.126 250.301C390.348 254.672 387.743 259.147 385.312 263.719C381.477 271.068 378.541 278.853 376.564 286.904C376.068 289.001 374.877 292.382 375.148 294.37C375.791 295.452 381.329 298.201 382.916 299.094C380.234 299.958 377.563 300.857 374.904 301.79C372.357 306.313 371.902 312.437 370.914 317.726C370.215 321.451 369.387 325.151 368.436 328.819C371.712 334.874 374.749 340.711 378.502 346.505C383.432 354.112 389.292 361.245 392.684 369.719C395.331 376.336 396.188 383.192 396.338 390.232C396.421 394.133 396.224 397.884 395.76 401.525H417.936C426.543 398.407 527.706 362.181 596.766 356.537C657.59 351.565 706.847 353.814 754.69 364.014C802.511 374.21 848.76 392.315 903.577 418.875C919.204 426.446 934.47 432.591 949.162 438.527C970.308 437.451 996.473 417.821 1002.59 375.033C1005.64 353.682 1017.79 328.512 1033.93 301.848C1050.12 275.104 1070.6 246.412 1090.69 218.007C1112.6 187.03 1135.82 167.336 1157.71 147.415C1179.6 127.489 1200.31 107.231 1217.98 74.8521C1223.28 65.1407 1226.93 56.8102 1230.11 49.4566C1233.26 42.1617 1236.04 35.631 1239.51 29.8609C1246.67 17.9404 1256.67 9.49533 1278.37 1.73592Z" fill="url(#paint0_linear_496_5233)" fill-opacity="0.6"/>
<defs>
<linearGradient id="paint0_linear_496_5233" x1="175.273" y1="58.7668" x2="1157.27" y2="1174.27" gradientUnits="userSpaceOnUse">
<stop stop-color="#45C9E7"/>
<stop offset="0.278846" stop-color="#5FBCF3"/>
<stop offset="0.75" stop-color="#D456C8"/>
<stop offset="1" stop-color="#F8A553"/>
</linearGradient>
</defs>
</svg>
